<svg id="bad" xmlns="http://www.w3.org/2000/svg" width="20" height="18.457" viewBox="0 0 20 18.457">
  <path id="Path_172" data-name="Path 172" d="M16.065,4.5H7.859A1.751,1.751,0,0,0,6.228,5.625L3.5,12.135a1.853,1.853,0,0,0-.124.673v1.856a2.116,2.116,0,0,0,1.8,2.144H10.87l-.859,3.918-.029.288a1.4,1.4,0,0,0,.4.976l.954.966,6.021-6.115a1.858,1.858,0,0,0,.525-1.3V6.308A1.806,1.806,0,0,0,16.065,4.5Z" transform="translate(-3.375 -4.5)" fill="#d05656"/>
  <path id="Path_173" data-name="Path 173" d="M28.125,4.5h3.141V15.494H28.125Z" transform="translate(-11.266 -4.5)" fill="#d05656"/>
</svg>
