<svg xmlns="http://www.w3.org/2000/svg" width="20" height="20" viewBox="0 0 20 20">
  <path id="call" d="M23.389,18.389a13.041,13.041,0,0,1-3.944-.611,1.039,1.039,0,0,0-1.111.278L15.889,20.5a16.709,16.709,0,0,1-7.333-7.333L11,10.722a1.158,1.158,0,0,0,.278-1.111,12.084,12.084,0,0,1-.667-4A1.114,1.114,0,0,0,9.5,4.5H5.611A1.114,1.114,0,0,0,4.5,5.611,18.873,18.873,0,0,0,23.389,24.5,1.115,1.115,0,0,0,24.5,23.389V19.5A1.115,1.115,0,0,0,23.389,18.389Z" transform="translate(-4.5 -4.5)" fill="#f2f2f2"/>
</svg>
