<svg id="good" xmlns="http://www.w3.org/2000/svg" width="20" height="18.466" viewBox="0 0 20 18.466">
  <path id="Path_174" data-name="Path 174" d="M13.071,22.966h8.24a1.758,1.758,0,0,0,1.639-1.125l2.736-6.511a1.847,1.847,0,0,0,.125-.673V12.8A2.119,2.119,0,0,0,24,10.655H18.288l.862-3.919.029-.289a1.4,1.4,0,0,0-.4-.976L17.814,4.5l-6.037,6.122a1.855,1.855,0,0,0-.527,1.3v9.233A1.81,1.81,0,0,0,13.071,22.966Z" transform="translate(-5.81 -4.5)" fill="#4fc666"/>
  <path id="Path_175" data-name="Path 175" d="M3.375,15.75H6.484V26.631H3.375Z" transform="translate(-3.375 -8.165)" fill="#4fc666"/>
</svg>
