<svg xmlns="http://www.w3.org/2000/svg" width="200" height="200" viewBox="0 0 200 200">
  <g id="manage" transform="translate(-3199 578)">
    <rect id="Rectangle_31" data-name="Rectangle 31" width="200" height="200" rx="5" transform="translate(3199 -578)" fill="#615cf2"/>
    <path id="Icon_awesome-edit" data-name="Icon awesome-edit" d="M55.917,11.549,68.444,24.076a1.358,1.358,0,0,1,0,1.917L38.111,56.326,25.222,57.757a2.7,2.7,0,0,1-2.986-2.986l1.431-12.889L54,11.549A1.358,1.358,0,0,1,55.917,11.549Zm22.5-3.181L71.639,1.59a5.432,5.432,0,0,0-7.667,0L59.056,6.507a1.358,1.358,0,0,0,0,1.917L71.583,20.951a1.358,1.358,0,0,0,1.917,0l4.917-4.917a5.432,5.432,0,0,0,0-7.667ZM53.333,48.076V62.215H8.889V17.771H40.806a1.708,1.708,0,0,0,1.181-.486l5.556-5.556a1.667,1.667,0,0,0-1.181-2.847H6.667A6.668,6.668,0,0,0,0,15.549V64.438A6.668,6.668,0,0,0,6.667,71.1H55.556a6.668,6.668,0,0,0,6.667-6.667V42.521a1.67,1.67,0,0,0-2.847-1.181L53.819,46.9A1.708,1.708,0,0,0,53.333,48.076Z" transform="translate(3259 -514.007)" fill="#f0f0f0"/>
  </g>
</svg>
