<svg xmlns="http://www.w3.org/2000/svg" width="200" height="200" viewBox="0 0 200 200">
  <g id="profile" transform="translate(-3518 578)">
    <rect id="Rectangle_32" data-name="Rectangle 32" width="200" height="200" rx="5" transform="translate(3518 -578)" fill="#615cf2"/>
    <path id="Icon_awesome-user-edit" data-name="Icon awesome-user-edit" d="M28,32A16,16,0,1,0,12,16,16,16,0,0,0,28,32Zm11.2,4H37.114a21.76,21.76,0,0,1-18.226,0H16.8A16.8,16.8,0,0,0,0,52.8V58a6,6,0,0,0,6,6H40.364a6,6,0,0,1-.325-2.663l.85-7.613.15-1.388.988-.988,9.663-9.663A16.63,16.63,0,0,0,39.2,36Zm5.663,18.163-.85,7.625a1.99,1.99,0,0,0,2.2,2.2l7.613-.85L71.065,45.9,62.1,36.939,44.864,54.165ZM79.128,33.614,74.39,28.876a3,3,0,0,0-4.225,0L65.44,33.6l-.513.513L73.9,43.077l5.225-5.225a3.01,3.01,0,0,0,0-4.238Z" transform="translate(3578 -510)" fill="#f0f0f0"/>
  </g>
</svg>
